<?xml version="1.0" standalone="no"?>
<!DOCTYPE svg PUBLIC "-//W3C//DTD SVG 20010904//EN"
 "http://www.w3.org/TR/2001/REC-SVG-20010904/DTD/svg10.dtd">
<svg version="1.0" xmlns="http://www.w3.org/2000/svg"
 width="100.000000pt" height="100.000000pt" viewBox="0 0 100.000000 100.000000"
 preserveAspectRatio="xMidYMid meet">
<metadata>
Created by potrace 1.14, written by Peter Selinger 2001-2017
</metadata>
<g transform="translate(0.000000,100.000000) scale(0.100000,-0.100000)"
fill="#000000" stroke="none">
<path d="M506 993 c-1 -1 -36 -5 -77 -7 -41 -3 -92 -10 -114 -16 -22 -6 -48
-12 -57 -15 -35 -8 -45 -27 -37 -69 6 -37 5 -42 -29 -70 -84 -72 -155 -143
-169 -169 -26 -52 -24 -84 7 -111 25 -21 37 -24 92 -21 55 3 103 10 103 15 0
1 8 3 18 5 11 2 21 -5 27 -18 5 -12 29 -44 54 -71 29 -31 42 -54 39 -65 -3 -9
-26 -35 -51 -59 -49 -48 -50 -42 20 -114 37 -36 35 -63 -7 -102 l-34 -33 37
-36 c21 -20 43 -37 50 -37 14 0 82 59 82 71 0 5 -15 22 -33 39 -19 17 -34 38
-34 48 0 9 21 40 48 67 l49 51 -49 48 c-50 49 -58 79 -29 98 7 4 9 8 5 8 -10
0 72 70 82 70 3 0 28 -23 54 -50 26 -28 51 -50 56 -50 4 0 30 22 57 50 27 27
53 50 57 50 4 0 31 -23 59 -50 28 -28 53 -50 55 -50 7 0 103 93 103 100 0 4
-22 31 -50 59 -27 28 -50 55 -50 59 0 4 33 39 73 79 49 47 73 79 73 95 0 12 4
51 8 85 7 64 7 65 -44 78 -3 1 -12 4 -20 8 -32 12 -78 19 -150 23 -41 3 -76 7
-79 9 -2 3 -11 -1 -19 -8 -9 -7 -13 -7 -9 -1 5 8 -19 11 -79 10 -47 0 -87 -2
-88 -3z m331 -48 c40 -7 69 -12 91 -14 6 0 12 -8 12 -17 0 -11 -6 -15 -20 -11
-11 3 -23 1 -26 -5 -3 -5 -12 -7 -19 -4 -7 2 -16 2 -20 -2 -3 -4 -41 -7 -83
-8 -42 -1 -93 -3 -112 -5 -19 -2 -41 0 -47 4 -7 5 -21 3 -31 -2 -11 -6 -22 -8
-25 -5 -2 3 -45 7 -93 9 -107 4 -176 13 -188 25 -12 12 24 27 57 25 15 -1 30
1 32 5 2 4 37 8 77 9 40 1 74 3 75 5 5 5 284 -3 320 -9z m-597 -194 c-1 -20 1
-45 4 -56 2 -11 5 -30 5 -42 1 -20 5 -22 34 -16 17 3 38 10 45 16 6 5 12 6 12
2 0 -4 6 -3 13 3 6 6 44 23 82 38 39 15 93 40 120 55 52 28 84 26 72 -4 -5
-14 -99 -66 -122 -68 -5 0 -18 -8 -29 -17 -10 -9 -21 -17 -25 -16 -3 1 -17 -3
-31 -7 -14 -5 -29 -9 -34 -8 -5 0 -12 -4 -16 -10 -3 -6 -16 -13 -28 -16 -11
-2 -31 -9 -44 -16 -13 -7 -25 -12 -28 -11 -3 1 -27 -4 -55 -12 -89 -24 -157
-20 -169 9 -12 33 35 93 159 203 22 19 36 8 35 -27z"/>
<path d="M762 319 c-47 -44 -48 -40 8 -101 14 -16 32 -28 41 -28 15 0 89 71
89 85 0 8 -79 85 -88 85 -4 0 -27 -18 -50 -41z"/>
<path d="M562 317 c-18 -18 -32 -37 -32 -43 0 -14 63 -74 78 -74 7 0 12 5 12
12 0 6 3 9 6 5 7 -7 54 46 54 61 0 14 -61 72 -76 72 -5 0 -24 -15 -42 -33z"/>
</g>
</svg>
