<svg xmlns="http://www.w3.org/2000/svg" xmlns:xlink="http://www.w3.org/1999/xlink" xmlns:lucid="lucid" width="1040" height="1140"><g transform="translate(-440 280)" lucid:page-tab-id="0_0"><path d="M613.24-260c17.67 0 32 17.9 32 40s-14.33 40-32 40h-96c-17.68 0-32-17.9-32-40s14.32-40 32-40z" stroke="#000" stroke-opacity="0" fill="#5d3597"/><use xlink:href="#a" transform="matrix(1,0,0,1,490.2383894374435,-255) translate(46.65462962962964 41.198611111111106)"/><path d="M558.58-115.57a12.03 12.03 0 0 1 13.32 0l91.92 61.14a5.32 5.32 0 0 1 0 8.86L571.9 15.57a12.03 12.03 0 0 1-13.32 0l-91.92-61.14a5.32 5.32 0 0 1 0-8.86z" stroke="#5d3597" stroke-width="4" fill="#fff"/><use xlink:href="#b" transform="matrix(1,0,0,1,465,-115) translate(72.84450617283952 46.21527777777778)"/><use xlink:href="#c" transform="matrix(1,0,0,1,465,-115) translate(96.3012962962963 46.21527777777778)"/><use xlink:href="#d" transform="matrix(1,0,0,1,465,-115) translate(43.0198148148148 70.03750000000001)"/><use xlink:href="#e" transform="matrix(1,0,0,1,465,-115) translate(103.06425925925926 70.03750000000001)"/><use xlink:href="#f" transform="matrix(1,0,0,1,465,-115) translate(76.20499999999998 95.28194444444446)"/><path d="M565.24-179.5v43.12" stroke="#3a414a" fill="none"/><path d="M565.74-179.5h-1v-.5h1z" stroke="#3a414a" stroke-width=".05" fill="#3a414a"/><path d="M565.24-121.62l-4.64-14.26h9.27z" stroke="#3a414a" fill="#3a414a"/><path d="M871.24-90C887.12-90 900-72.1 900-50s-12.88 40-28.76 40h-86.28c-15.9 0-28.77-17.9-28.77-40s12.87-40 28.75-40z" stroke="#000" stroke-opacity="0" fill="#5d3597"/><use xlink:href="#g" transform="matrix(1,0,0,1,761.1938612929304,-85) translate(44.84450617283951 26.527777777777775)"/><use xlink:href="#h" transform="matrix(1,0,0,1,761.1938612929304,-85) translate(25.122283950617287 53.19444444444444)"/><path d="M694.98-49H669.2v-2h25.77zm42.7 0h-8.26v-2h8.27z" stroke="#008a0e" stroke-width=".05" fill="#008a0e"/><path d="M669.23-49h-1.13l.1-1-.1-1h1.13z" fill="#008a0e"/><path d="M669.25-48.98h-1.18l.1-1.02-.1-1.02h1.18zm-1.12-2l.1.98-.1.98h1.07v-1.95z" stroke="#008a0e" stroke-width=".05" fill="#008a0e"/><path d="M752.96-50l-14.27 4.63v-9.27z" fill="#008a0e"/><path d="M756.2-50l-18.5 6v-12zm-16.5 3.26L749.7-50l-10.03-3.26z" stroke="#008a0e" stroke-width=".05" fill="#008a0e"/><use xlink:href="#i" transform="matrix(1,0,0,1,694.9745063357857,-61.99999999947538) translate(0 16)"/><path d="M558.58 100.3a12.03 12.03 0 0 1 13.32 0l91.92 61.14a5.32 5.32 0 0 1 0 8.87l-91.92 61.14a12.03 12.03 0 0 1-13.32 0l-91.92-61.13a5.32 5.32 0 0 1 0-8.86z" stroke="#5d3597" stroke-width="4" fill="#fff"/><use xlink:href="#j" transform="matrix(1,0,0,1,465,100.87579711438019) translate(54.387716049382725 50.27777777777778)"/><use xlink:href="#k" transform="matrix(1,0,0,1,465,100.87579711438019) translate(95.06672839506173 50.27777777777778)"/><use xlink:href="#l" transform="matrix(1,0,0,1,465,100.87579711438019) translate(30.375370370370373 76.94444444444446)"/><path d="M861.32 100.12a12.8 12.8 0 0 1 13.56 0l98.34 61.5a5 5 0 0 1 0 8.5l-98.34 61.5a12.8 12.8 0 0 1-13.56 0l-98.34-61.5a5 5 0 0 1 0-8.5z" stroke="#5d3597" stroke-width="4" fill="#fff"/><use xlink:href="#m" transform="matrix(1,0,0,1,761.1938612929304,100.87579711438019) translate(62.58641975308642 42.77777777777778)"/><use xlink:href="#c" transform="matrix(1,0,0,1,761.1938612929304,100.87579711438019) translate(120.54938271604938 42.77777777777778)"/><use xlink:href="#n" transform="matrix(1,0,0,1,761.1938612929304,100.87579711438019) translate(15.76543209876543 69.44444444444446)"/><use xlink:href="#o" transform="matrix(1,0,0,1,761.1938612929304,100.87579711438019) translate(148.85185185185185 69.44444444444446)"/><use xlink:href="#p" transform="matrix(1,0,0,1,761.1938612929304,100.87579711438019) translate(60.148148148148145 96.11111111111111)"/><path d="M696.18 166.88H669.2v-2h26.98zm43.93 0h-9.47v-2h9.48z" stroke="#008a0e" stroke-width=".05" fill="#008a0e"/><path d="M669.23 166.88h-1.13l.1-1-.1-1h1.13z" fill="#008a0e"/><path d="M669.25 166.9h-1.18l.1-1.02-.1-1.03h1.18zm-1.12-2l.1.98-.1.97h1.07v-1.95z" stroke="#008a0e" stroke-width=".05" fill="#008a0e"/><path d="M755.38 165.88l-14.27 4.63v-9.26z" fill="#008a0e"/><path d="M758.62 165.88l-18.5 6v-12.02zm-16.5 3.25l10.02-3.25-10.03-3.26z" stroke="#008a0e" stroke-width=".05" fill="#008a0e"/><use xlink:href="#i" transform="matrix(1,0,0,1,696.1853631410104,153.87579711490483) translate(0 16)"/><path d="M1208.43 125.88c15.9 0 28.76 17.9 28.76 40s-12.88 40-28.77 40h-86.28c-15.88 0-28.76-17.9-28.76-40s12.87-40 28.75-40z" stroke="#000" stroke-opacity="0" fill="#5d3597"/><use xlink:href="#q" transform="matrix(1,0,0,1,1098.3877225858607,130.8757971143802) translate(44.84450617283951 26.527777777777775)"/><use xlink:href="#r" transform="matrix(1,0,0,1,1098.3877225858607,130.8757971143802) translate(25.122283950617287 53.19444444444444)"/><path d="M1022.2 166.88H978.6v-2h43.63zm52.7 0h-26.14v-2h26.13z" stroke="#e81313" stroke-width=".05" fill="#e81313"/><path d="M978.6 166.88h-1.12l.1-1-.1-1h1.12z" fill="#e81313"/><path d="M978.63 166.9h-1.18l.1-1.02-.1-1.03h1.18zm-1.13-2l.1.98-.1.97h1.08v-1.95z" stroke="#e81313" stroke-width=".05" fill="#e81313"/><path d="M1090.15 165.88l-14.26 4.63v-9.26z" fill="#e81313"/><path d="M1093.4 165.88l-18.5 6v-12.02zm-16.5 3.25l10.02-3.25-10.03-3.26z" stroke="#e81313" stroke-width=".05" fill="#e81313"/><use xlink:href="#s" transform="matrix(1,0,0,1,1022.2052262559218,153.87579711490483) translate(0 16)"/><path d="M698.58 314.3a12.03 12.03 0 0 1 13.32 0l91.92 61.14a5.32 5.32 0 0 1 0 8.87l-91.92 61.14a12.03 12.03 0 0 1-13.32 0l-91.92-61.13a5.32 5.32 0 0 1 0-8.86z" stroke="#5d3597" stroke-width="4" fill="#fff"/><use xlink:href="#t" transform="matrix(1,0,0,1,605,314.8740620548971) translate(82.7519135802469 42.15277777777778)"/><use xlink:href="#u" transform="matrix(1,0,0,1,605,314.8740620548971) translate(28.49265432098765 68.81944444444446)"/><use xlink:href="#v" transform="matrix(1,0,0,1,605,314.8740620548971) translate(85.22104938271605 68.81944444444446)"/><use xlink:href="#w" transform="matrix(1,0,0,1,605,314.8740620548971) translate(69.81981481481482 95.48611111111111)"/><path d="M566.24 77.8h-2V62.66h2zm0-39.13h-2V20.6h2z" stroke="#e81313" stroke-width=".05" fill="#e81313"/><path d="M565.24 19.6l1-.07v1.08h-2v-1.07z" fill="#e81313"/><path d="M565.24 19.56l1.02-.06v1.14h-2.05V19.5zm-.98 1.03h1.95v-1.05l-.96.06-.98-.05z" stroke="#e81313" stroke-width=".05" fill="#e81313"/><path d="M565.24 93.05L560.6 78.8h9.27z" fill="#e81313"/><path d="M565.24 96.3l-6-18.5h12zm-3.26-16.5l3.26 10.02 3.26-10.03z" stroke="#e81313" stroke-width=".05" fill="#e81313"/><use xlink:href="#s" transform="matrix(1,0,0,1,551.9606116922012,38.66666666666674) translate(0 16)"/><path d="M769.45 273.94h-58.17l-.82.06-.77.18-.73.3-.67.4-.6.52-.5.6-.4.67-.3.72-.2.75-.06.83v12.8h-2V278.9l.08-1.06.26-1.07.42-1 .57-.95.72-.84.82-.7.94-.58 1-.43 1.08-.25 1.06-.08h58.25zm99.65-6.96l-.1 1.05-.24 1.07-.42 1-.58.95-.7.84-.85.7-.92.57-1.02.43-1.07.25-1.06.1H803.9v-2h58.16l.82-.08.76-.18.73-.3.66-.42.6-.5.5-.6.42-.68.3-.72.18-.76.07-.82v-30.32h2z" stroke="#008a0e" stroke-width=".05" fill="#008a0e"/><path d="M868.1 235.58l1-.05v1.08h-2v-1.07z" fill="#008a0e"/><path d="M868.1 235.56l1.02-.06v1.13h-2.05v-1.13zm-.98 1.02h1.95v-1.03l-.97.06-.98-.05z" stroke="#008a0e" stroke-width=".05" fill="#008a0e"/><path d="M705.24 307.05l-4.64-14.26h9.27z" fill="#008a0e"/><path d="M705.24 310.3l-6-18.5h12zm-3.26-16.5l3.26 10.02 3.26-10.03z" stroke="#008a0e" stroke-width=".05" fill="#008a0e"/><use xlink:href="#i" transform="matrix(1,0,0,1,769.4454378370604,260.9355609231552) translate(0 16)"/><path d="M566.24 373.83l.06.83.2.76.3.72.4.67.5.6.6.52.67.4.72.3.76.2.82.05h12.5v2H571.2l-1.06-.08-1.07-.27-1-.42-.95-.56-.83-.7-.73-.85-.57-.95-.42-1-.26-1.08-.08-1.06v-63.23h2zm0-87.16h-2v-50.2h2z" stroke="#e81313" stroke-width=".05" fill="#e81313"/><path d="M565.24 235.46l1-.06v1.1h-2v-1.1z" fill="#e81313"/><path d="M565.24 235.44l1.02-.06v1.13h-2.05v-1.12zm-.98 1.02h1.95v-1.03l-.96.06-.98-.07z" stroke="#e81313" stroke-width=".05" fill="#e81313"/><path d="M599.04 379.87l-14.26 4.64v-9.26z" fill="#e81313"/><path d="M602.28 379.87l-18.5 6.02v-12.04zm-16.5 3.26l10.02-3.26-10.02-3.25z" stroke="#e81313" stroke-width=".05" fill="#e81313"/><use xlink:href="#s" transform="matrix(1,0,0,1,551.9606116922012,286.66666666666674) translate(0 16)"/><path d="M698.55 564.4a12.18 12.18 0 0 1 13.38 0l101.86 66.87a5.25 5.25 0 0 1 0 8.78l-101.87 66.88a12.18 12.18 0 0 1-13.38 0L596.7 640.05a5.25 5.25 0 0 1 0-8.78z" stroke="#5d3597" stroke-width="4" fill="#fff"/><use xlink:href="#t" transform="matrix(1,0,0,1,595,565) translate(93.25191358024692 35.52777777777778)"/><use xlink:href="#u" transform="matrix(1,0,0,1,595,565) translate(51.48648148148148 62.19444444444445)"/><use xlink:href="#x" transform="matrix(1,0,0,1,595,565) translate(108.21487654320988 62.19444444444445)"/><use xlink:href="#y" transform="matrix(1,0,0,1,595,565) translate(54.480308641975306 88.86111111111111)"/><use xlink:href="#w" transform="matrix(1,0,0,1,595,565) translate(80.31981481481482 115.5277777777778)"/><path d="M1038.5 304.08a12.53 12.53 0 0 1 13.48 0l111.75 71.32a5.1 5.1 0 0 1 0 8.6l-111.75 71.34a12.53 12.53 0 0 1-13.5 0L926.75 384a5.1 5.1 0 0 1 0-8.6z" stroke="#5d3597" stroke-width="4" fill="#fff"/><use xlink:href="#j" transform="matrix(1,0,0,1,925,304.7713092056322) translate(69.91858024691356 50.59027777777778)"/><use xlink:href="#z" transform="matrix(1,0,0,1,925,304.7713092056322) translate(110.59759259259258 50.59027777777778)"/><use xlink:href="#A" transform="matrix(1,0,0,1,925,304.7713092056322) translate(152.5729012345679 50.59027777777778)"/><use xlink:href="#B" transform="matrix(1,0,0,1,925,304.7713092056322) translate(31.739567901234576 77.25694444444446)"/><use xlink:href="#C" transform="matrix(1,0,0,1,925,304.7713092056322) translate(68.77660493827162 77.25694444444446)"/><use xlink:href="#D" transform="matrix(1,0,0,1,925,304.7713092056322) translate(161.24574074074076 77.25694444444446)"/><use xlink:href="#p" transform="matrix(1,0,0,1,925,304.7713092056322) translate(73.65314814814815 103.92361111111111)"/><path d="M1420 334.87c22.1 0 40 20.15 40 45 0 24.86-17.9 45-40 45h-120c-22.1 0-40-20.14-40-45 0-24.85 17.9-45 40-45z" stroke="#000" stroke-opacity="0" fill="#5d3597"/><use xlink:href="#E" transform="matrix(1,0,0,1,1265,339.8740620548971) translate(43.21487654320989 20.277777777777775)"/><use xlink:href="#F" transform="matrix(1,0,0,1,1265,339.8740620548971) translate(115.93092592592592 20.277777777777775)"/><use xlink:href="#G" transform="matrix(1,0,0,1,1265,339.8740620548971) translate(24.722222222222243 46.94444444444444)"/><use xlink:href="#h" transform="matrix(1,0,0,1,1265,339.8740620548971) translate(53.12228395061729 73.6111111111111)"/><path d="M848.07 380.87H809.2v-2h38.87zm55.82 0H882.5v-2h21.37z" stroke="#008a0e" stroke-width=".05" fill="#008a0e"/><path d="M809.23 380.87h-1.13l.1-1-.1-1h1.13z" fill="#008a0e"/><path d="M809.25 380.9h-1.18l.1-1.03-.1-1.02h1.18zm-1.12-2l.1.97-.1.98h1.07v-1.95z" stroke="#008a0e" stroke-width=".05" fill="#008a0e"/><path d="M919.15 379.87l-14.26 4.64v-9.26z" fill="#008a0e"/><path d="M922.4 379.87l-18.5 6.02v-12.04zm-16.5 3.26l10.02-3.26-10.03-3.25z" stroke="#008a0e" stroke-width=".05" fill="#008a0e"/><use xlink:href="#i" transform="matrix(1,0,0,1,848.073124598202,367.8740620554217) translate(0 16)"/><path d="M1196.83 380.7h-27.73v-2h27.73zm44.68 0h-10.22v-2h10.23z" stroke="#008a0e" stroke-width=".05" fill="#008a0e"/><path d="M1169.13 380.7H1168l.1-1-.1-1h1.13z" fill="#008a0e"/><path d="M1169.15 380.73h-1.18l.1-1.02-.1-1.02h1.18zm-1.12-2l.1.98-.1.98h1.07v-1.95z" stroke="#008a0e" stroke-width=".05" fill="#008a0e"/><path d="M1256.77 379.7l-14.26 4.64v-9.27z" fill="#008a0e"/><path d="M1260 379.7l-18.5 6.02V373.7zm-16.5 3.27l10.04-3.26-10.03-3.25z" stroke="#008a0e" stroke-width=".05" fill="#008a0e"/><use xlink:href="#i" transform="matrix(1,0,0,1,1196.8335129896136,367.7083402224743) translate(0 16)"/><path d="M706.24 541.9h-2v-48.6h2zm0-72.6h-2v-18.84h2z" stroke="#e81313" stroke-width=".05" fill="#e81313"/><path d="M705.24 449.46l1-.06v1.1h-2v-1.1z" fill="#e81313"/><path d="M705.24 449.44l1.02-.06v1.13h-2.05v-1.13zm-.98 1.02h1.95v-1.03l-.96.06-.98-.07z" stroke="#e81313" stroke-width=".05" fill="#e81313"/><path d="M705.24 557.15l-4.64-14.26h9.27z" fill="#e81313"/><path d="M705.24 560.4l-6-18.5h12zm-3.26-16.5l3.26 10 3.26-10z" stroke="#e81313" stroke-width=".05" fill="#e81313"/><use xlink:href="#s" transform="matrix(1,0,0,1,691.9606116922012,469.3008295228983) translate(0 16)"/><path d="M861.96 510.85H711.28l-.82.06-.77.2-.73.3-.67.4-.6.52-.5.6-.4.66-.3.73-.2.77-.06.82v26h-2v-26.1l.08-1.04.26-1.07.42-1.03.57-.94.72-.83.82-.7.94-.6 1-.4 1.08-.27 1.06-.08h150.76zm184.28-6.96l-.1 1.05-.24 1.06-.42 1.03-.58.94-.7.83-.85.72-.93.57-1.02.4-1.07.27-1.05.08H888.52v-2h150.68l.82-.06.76-.2.73-.3.67-.4.6-.52.5-.6.42-.66.3-.73.17-.77.07-.82v-43.5h2z" stroke="#e81313" stroke-width=".05" fill="#e81313"/><path d="M1045.24 459.3l1-.04v1.08h-2v-1.08z" fill="#e81313"/><path d="M1045.24 459.3l1.02-.07v1.13h-2.05v-1.13zm-.98 1h1.95v-1.02l-.96.06-.98-.06z" stroke="#e81313" stroke-width=".05" fill="#e81313"/><path d="M705.24 557.15l-4.64-14.26h9.27z" fill="#e81313"/><path d="M705.24 560.4l-6-18.5h12zm-3.26-16.5l3.26 10.02 3.26-10.03z" stroke="#e81313" stroke-width=".05" fill="#e81313"/><use xlink:href="#s" transform="matrix(1,0,0,1,861.9605976748735,497.85063936701283) translate(0 16)"/><path d="M1028.82 560a13.4 13.4 0 0 1 13.74 0l120.13 71.73a4.78 4.78 0 0 1-.02 8.2l-120.12 71.73a13.4 13.4 0 0 1-13.74 0L908.7 639.93a4.78 4.78 0 0 1 0-8.2z" stroke="#5d3597" stroke-width="4" fill="#fff"/><use xlink:href="#j" transform="matrix(1,0,0,1,906.8311044121464,560.8907922372107) translate(90.76425925925925 36.52777777777778)"/><use xlink:href="#H" transform="matrix(1,0,0,1,906.8311044121464,560.8907922372107) translate(131.44327160493827 36.52777777777778)"/><use xlink:href="#I" transform="matrix(1,0,0,1,906.8311044121464,560.8907922372107) translate(67.98648148148149 63.19444444444445)"/><use xlink:href="#B" transform="matrix(1,0,0,1,906.8311044121464,560.8907922372107) translate(92.67783950617284 63.19444444444445)"/><use xlink:href="#x" transform="matrix(1,0,0,1,906.8311044121464,560.8907922372107) translate(129.71487654320987 63.19444444444445)"/><use xlink:href="#J" transform="matrix(1,0,0,1,906.8311044121464,560.8907922372107) translate(45.88154320987655 89.86111111111111)"/><use xlink:href="#D" transform="matrix(1,0,0,1,906.8311044121464,560.8907922372107) translate(163.10376543209878 89.86111111111111)"/><use xlink:href="#p" transform="matrix(1,0,0,1,906.8311044121464,560.8907922372107) translate(82.15314814814815 116.5277777777778)"/><path d="M1420 590.66c22.1 0 40 20.15 40 45 0 24.86-17.9 45-40 45h-120c-22.1 0-40-20.14-40-45 0-24.85 17.9-45 40-45z" stroke="#000" stroke-opacity="0" fill="#5d3597"/><g><use xlink:href="#E" transform="matrix(1,0,0,1,1265,595.6621014428429) translate(43.21487654320989 20.277777777777775)"/><use xlink:href="#F" transform="matrix(1,0,0,1,1265,595.6621014428429) translate(115.93092592592592 20.277777777777775)"/><use xlink:href="#G" transform="matrix(1,0,0,1,1265,595.6621014428429) translate(24.722222222222243 46.94444444444444)"/><use xlink:href="#h" transform="matrix(1,0,0,1,1265,595.6621014428429) translate(53.12228395061729 73.6111111111111)"/></g><path d="M1196.3 636.83H1168v-2h28.27zm45.2-.33h-10.76v-2h10.77z" stroke="#008a0e" stroke-width=".05" fill="#008a0e"/><path d="M1168.05 636.83h-1.13l.1-1-.1-1h1.13z" fill="#008a0e"/><path d="M1168.08 636.85h-1.2l.12-1.02-.1-1.03h1.17zm-1.13-2l.1.98-.1.97h1.08v-1.95z" stroke="#008a0e" stroke-width=".05" fill="#008a0e"/><path d="M1256.77 635.5l-14.26 4.63v-9.27z" fill="#008a0e"/><path d="M1260 635.5l-18.5 6v-12zm-16.5 3.25l10.04-3.25-10.03-3.26z" stroke="#008a0e" stroke-width=".05" fill="#008a0e"/><g><use xlink:href="#i" transform="matrix(1,0,0,1,1196.294373523508,623.662101432236) translate(0 16)"/></g><path d="M885.86 634.83v2l-13.97-.04v-2zm-66.7 1.83v-2h18.28v2z" stroke="#008a0e" stroke-width=".05" fill="#008a0e"/><path d="M819.2 636.66h-1.13l.1-1-.1-1h1.13z" fill="#008a0e"/><path d="M819.22 636.7h-1.18l.1-1.04-.1-1.02h1.18zm-1.12-2l.1.96-.1.98h1.07v-1.95z" stroke="#008a0e" stroke-width=".05" fill="#008a0e"/><path d="M901.13 635.83l-14.27 4.63v-9.27z" fill="#008a0e"/><path d="M904.36 635.83l-18.5 6v-12zm-16.5 3.26l10.03-3.27-10.04-3.26z" stroke="#008a0e" stroke-width=".05" fill="#008a0e"/><g><use xlink:href="#i" transform="matrix(1,0,0,1,837.4444444444446,623.66210146607) translate(0 16)"/></g><path d="M911.24 760c15.88 0 28.76 17.9 28.76 40s-12.88 40-28.76 40h-86.28c-15.9 0-28.77-17.9-28.77-40s12.87-40 28.75-40z" stroke="#000" stroke-opacity="0" fill="#5d3597"/><g><use xlink:href="#K" transform="matrix(1,0,0,1,801.1938612929303,765) translate(31.881543209876547 26.527777777777775)"/><use xlink:href="#L" transform="matrix(1,0,0,1,801.1938612929303,765) translate(27.529691358024692 53.19444444444444)"/></g><path d="M706.24 795.92l.06.82.2.76.3.73.4.67.5.6.6.5.67.4.72.3.76.2.82.06h66.48v2H711.2l-1.06-.08-1.07-.26-1-.42-.95-.57-.83-.72-.73-.82-.57-.94-.42-1-.26-1.08-.08-1.06v-21.33h2zm0-45.25h-2v-38.73h2z" stroke="#e81313" stroke-width=".05" fill="#e81313"/><path d="M705.24 710.94l1-.06v1.08h-2v-1.08z" fill="#e81313"/><path d="M705.24 710.9l1.02-.05V712h-2.05v-1.15zm-.98 1.04h1.95v-1.04l-.96.06-.98-.06z" stroke="#e81313" stroke-width=".05" fill="#e81313"/><path d="M793.03 801.96l-14.27 4.64v-9.27z" fill="#e81313"/><path d="M796.26 801.96l-18.5 6v-12zm-16.5 3.26l10.03-3.26-10.04-3.26z" stroke="#e81313" stroke-width=".05" fill="#e81313"/><g><use xlink:href="#s" transform="matrix(1,0,0,1,691.9606116909677,750.6666666666667) translate(0 16)"/></g><path d="M1036.7 794.04l-.1 1.06-.25 1.06-.42 1.02-.57.94-.72.83-.83.72-.93.57-1 .42-1.08.26-1.07.08H958.5v-2h71.15l.82-.07.77-.18.72-.3.67-.4.6-.52.5-.6.4-.66.3-.73.2-.76.06-.82v-20.63h2zm0-44.7h-2v-32.78h2z" stroke="#e81313" stroke-width=".05" fill="#e81313"/><path d="M1035.7 715.56l1-.05v1.1h-2v-1.1z" fill="#e81313"/><path d="M1035.7 715.54l1.02-.06v1.13h-2.05v-1.12zm-.98 1.02h1.95v-1.03l-.98.06-.98-.07z" stroke="#e81313" stroke-width=".05" fill="#e81313"/><path d="M957.5 804.63L943.24 800l14.26-4.63z" fill="#e81313"/><path d="M958.5 806l-18.5-6 18.5-6zm-12.03-6l10.03 3.26v-6.52z" stroke="#e81313" stroke-width=".05" fill="#e81313"/><g><use xlink:href="#s" transform="matrix(1,0,0,1,1022.4147351465742,749.3333333333335) translate(0 16)"/></g><defs><path fill="#fff" d="M194-120c59 52 2 134-86 124-53-6-90-18-98-63l31-7c8 30 29 43 70 43 46 0 84-17 71-62-32-43-135-20-137-98-3-89 178-90 191-16l-30 9c-8-48-127-53-127 5 0 53 81 35 115 65" id="M"/><path fill="#fff" d="M51-54c-9 22 5 41 31 30L79-1C43 14 10-4 19-52l22-115H19l5-23h22l19-43h21l-9 43h35l-4 23H73" id="N"/><path fill="#fff" d="M165-48c-4 18 1 34 23 27l-3 20c-29 8-62 0-52-35h-2C116-14 99 4 63 4 30 4 8-16 8-49c0-68 71-67 138-67 10-26 0-56-31-54-26 1-42 9-47 31l-32-5c8-67 160-71 144 15-5 28-9 54-15 81zM42-50c3 52 80 24 89-6 7-12 7-24 11-38-47 1-103-4-100 44" id="O"/><path fill="#fff" d="M66-151c12-25 30-51 66-40l-6 26C45-176 58-65 38 0H6l36-190h30" id="P"/><g id="a"><use transform="matrix(0.07469135802469135,0,0,0.07469135802469135,0,0)" xlink:href="#M"/><use transform="matrix(0.07469135802469135,0,0,0.07469135802469135,17.925925925925924,0)" xlink:href="#N"/><use transform="matrix(0.07469135802469135,0,0,0.07469135802469135,25.395061728395056,0)" xlink:href="#O"/><use transform="matrix(0.07469135802469135,0,0,0.07469135802469135,40.33333333333333,0)" xlink:href="#P"/><use transform="matrix(0.07469135802469135,0,0,0.07469135802469135,49.2216049382716,0)" xlink:href="#N"/></g><path d="M33 0v-248h34V0H33" id="Q"/><path d="M135-143c-3-34-86-38-87 0 15 53 115 12 119 90S17 21 10-45l28-5c4 36 97 45 98 0-10-56-113-15-118-90-4-57 82-63 122-42 12 7 21 19 24 35" id="R"/><g id="b"><use transform="matrix(0.06172839506172839,0,0,0.06172839506172839,0,0)" xlink:href="#Q"/><use transform="matrix(0.06172839506172839,0,0,0.06172839506172839,6.172839506172839,0)" xlink:href="#R"/></g><path d="M59-47c-2 24 18 29 38 22v24C64 9 27 4 27-40v-127H5v-23h24l9-43h21v43h35v23H59v120" id="S"/><path d="M106-169C34-169 62-67 57 0H25v-261h32l-1 103c12-21 28-36 61-36 89 0 53 116 60 194h-32v-121c2-32-8-49-39-48" id="T"/><path d="M100-194c63 0 86 42 84 106H49c0 40 14 67 53 68 26 1 43-12 49-29l28 8c-11 28-37 45-77 45C44 4 14-33 15-96c1-61 26-98 85-98zm52 81c6-60-76-77-97-28-3 7-6 17-6 28h103" id="U"/><g id="c"><use transform="matrix(0.06172839506172839,0,0,0.06172839506172839,0,0)" xlink:href="#S"/><use transform="matrix(0.06172839506172839,0,0,0.06172839506172839,6.172839506172839,0)" xlink:href="#T"/><use transform="matrix(0.06172839506172839,0,0,0.06172839506172839,18.51851851851852,0)" xlink:href="#U"/></g><path d="M185-189c-5-48-123-54-124 2 14 75 158 14 163 119 3 78-121 87-175 55-17-10-28-26-33-46l33-7c5 56 141 63 141-1 0-78-155-14-162-118-5-82 145-84 179-34 5 7 8 16 11 25" id="V"/><path d="M206 0h-36l-40-164L89 0H53L-1-190h32L70-26l43-164h34l41 164 42-164h31" id="W"/><path d="M24-231v-30h32v30H24zM24 0v-190h32V0H24" id="X"/><path d="M96-169c-40 0-48 33-48 73s9 75 48 75c24 0 41-14 43-38l32 2c-6 37-31 61-74 61-59 0-76-41-82-99-10-93 101-131 147-64 4 7 5 14 7 22l-32 3c-4-21-16-35-41-35" id="Y"/><g id="d"><use transform="matrix(0.05185185185185186,0,0,0.05185185185185186,0,0)" xlink:href="#V"/><use transform="matrix(0.05185185185185186,0,0,0.05185185185185186,12.444444444444446,0)" xlink:href="#W"/><use transform="matrix(0.05185185185185186,0,0,0.05185185185185186,25.874074074074077,0)" xlink:href="#X"/><use transform="matrix(0.05185185185185186,0,0,0.05185185185185186,29.970370370370375,0)" xlink:href="#S"/><use transform="matrix(0.05185185185185186,0,0,0.05185185185185186,35.15555555555556,0)" xlink:href="#Y"/><use transform="matrix(0.05185185185185186,0,0,0.05185185185185186,44.488888888888894,0)" xlink:href="#T"/></g><path d="M160-131c35 5 61 23 61 61C221 17 115-2 30 0v-248c76 3 177-17 177 60 0 33-19 50-47 57zm-97-11c50-1 110 9 110-42 0-47-63-36-110-37v79zm0 115c55-2 124 14 124-45 0-56-70-42-124-44v89" id="Z"/><path d="M84 4C-5 8 30-112 23-190h32v120c0 31 7 50 39 49 72-2 45-101 50-169h31l1 190h-30c-1-10 1-25-2-33-11 22-28 36-60 37" id="aa"/><path d="M100-194c62-1 85 37 85 99 1 63-27 99-86 99S16-35 15-95c0-66 28-99 85-99zM99-20c44 1 53-31 53-75 0-43-8-75-51-75s-53 32-53 75 10 74 51 75" id="ab"/><path d="M117-194c89-4 53 116 60 194h-32v-121c0-31-8-49-39-48C34-167 62-67 57 0H25l-1-190h30c1 10-1 24 2 32 11-22 29-35 61-36" id="ac"/><g id="e"><use transform="matrix(0.05185185185185186,0,0,0.05185185185185186,0,0)" xlink:href="#Z"/><use transform="matrix(0.05185185185185186,0,0,0.05185185185185186,12.444444444444446,0)" xlink:href="#aa"/><use transform="matrix(0.05185185185185186,0,0,0.05185185185185186,22.814814814814817,0)" xlink:href="#S"/><use transform="matrix(0.05185185185185186,0,0,0.05185185185185186,28.000000000000004,0)" xlink:href="#S"/><use transform="matrix(0.05185185185185186,0,0,0.05185185185185186,33.18518518518519,0)" xlink:href="#ab"/><use transform="matrix(0.05185185185185186,0,0,0.05185185185185186,43.555555555555564,0)" xlink:href="#ac"/></g><path d="M140-251c81 0 123 46 123 126C263-46 219 4 140 4 59 4 17-45 17-125s42-126 123-126zm0 227c63 0 89-41 89-101s-29-99-89-99c-61 0-89 39-89 99S79-25 140-24" id="ad"/><path d="M63-220v92h138v28H63V0H30v-248h175v28H63" id="ae"/><path d="M103-251c84 0 111 97 45 133-19 10-37 24-39 52H78c0-63 77-55 77-114 0-30-21-42-52-43-32 0-53 17-56 46l-32-2c7-45 34-72 88-72zM77 0v-35h34V0H77" id="af"/><g id="f"><use transform="matrix(0.05185185185185186,0,0,0.05185185185185186,0,0)" xlink:href="#ad"/><use transform="matrix(0.05185185185185186,0,0,0.05185185185185186,14.51851851851852,0)" xlink:href="#ae"/><use transform="matrix(0.05185185185185186,0,0,0.05185185185185186,25.874074074074077,0)" xlink:href="#ae"/><use transform="matrix(0.05185185185185186,0,0,0.05185185185185186,37.229629629629635,0)" xlink:href="#af"/></g><path fill="#fff" d="M140-251c81 0 123 46 123 126C263-46 219 4 140 4 59 4 17-45 17-125s42-126 123-126zm0 227c63 0 89-41 89-101s-29-99-89-99c-61 0-89 39-89 99S79-25 140-24" id="ag"/><path fill="#fff" d="M63-220v92h138v28H63V0H30v-248h175v28H63" id="ah"/><g id="g"><use transform="matrix(0.061728395061728385,0,0,0.061728395061728385,0,0)" xlink:href="#ag"/><use transform="matrix(0.061728395061728385,0,0,0.061728395061728385,17.28395061728395,0)" xlink:href="#ah"/><use transform="matrix(0.061728395061728385,0,0,0.061728395061728385,30.802469135802465,0)" xlink:href="#ah"/></g><path fill="#fff" d="M108 0H70L1-190h34L89-25l56-165h34" id="ai"/><path fill="#fff" d="M141-36C126-15 110 5 73 4 37 3 15-17 15-53c-1-64 63-63 125-63 3-35-9-54-41-54-24 1-41 7-42 31l-33-3c5-37 33-52 76-52 45 0 72 20 72 64v82c-1 20 7 32 28 27v20c-31 9-61-2-59-35zM48-53c0 20 12 33 32 33 41-3 63-29 60-74-43 2-92-5-92 41" id="aj"/><path fill="#fff" d="M114-163C36-179 61-72 57 0H25l-1-190h30c1 12-1 29 2 39 6-27 23-49 58-41v29" id="ak"/><path fill="#fff" d="M24-231v-30h32v30H24zM24 0v-190h32V0H24" id="al"/><path fill="#fff" d="M59-47c-2 24 18 29 38 22v24C64 9 27 4 27-40v-127H5v-23h24l9-43h21v43h35v23H59v120" id="am"/><path fill="#fff" d="M100-194c62-1 85 37 85 99 1 63-27 99-86 99S16-35 15-95c0-66 28-99 85-99zM99-20c44 1 53-31 53-75 0-43-8-75-51-75s-53 32-53 75 10 74 51 75" id="an"/><path fill="#fff" d="M117-194c89-4 53 116 60 194h-32v-121c0-31-8-49-39-48C34-167 62-67 57 0H25l-1-190h30c1 10-1 24 2 32 11-22 29-35 61-36" id="ao"/><g id="h"><use transform="matrix(0.061728395061728385,0,0,0.061728395061728385,0,0)" xlink:href="#ai"/><use transform="matrix(0.061728395061728385,0,0,0.061728395061728385,11.111111111111109,0)" xlink:href="#aj"/><use transform="matrix(0.061728395061728385,0,0,0.061728395061728385,23.456790123456784,0)" xlink:href="#ak"/><use transform="matrix(0.061728395061728385,0,0,0.061728395061728385,30.80246913580246,0)" xlink:href="#al"/><use transform="matrix(0.061728395061728385,0,0,0.061728395061728385,35.679012345679006,0)" xlink:href="#aj"/><use transform="matrix(0.061728395061728385,0,0,0.061728395061728385,48.02469135802468,0)" xlink:href="#am"/><use transform="matrix(0.061728395061728385,0,0,0.061728395061728385,54.19753086419752,0)" xlink:href="#al"/><use transform="matrix(0.061728395061728385,0,0,0.061728395061728385,59.07407407407406,0)" xlink:href="#an"/><use transform="matrix(0.061728395061728385,0,0,0.061728395061728385,71.41975308641975,0)" xlink:href="#ao"/></g><path fill="#333" d="M146-102V0H94v-102L6-248h54l60 105 60-105h54" id="ap"/><path fill="#333" d="M185-48c-13 30-37 53-82 52C43 2 14-33 14-96s30-98 90-98c62 0 83 45 84 108H66c0 31 8 55 39 56 18 0 30-7 34-22zm-45-69c5-46-57-63-70-21-2 6-4 13-4 21h74" id="aq"/><path fill="#333" d="M137-138c1-29-70-34-71-4 15 46 118 7 119 86 1 83-164 76-172 9l43-7c4 19 20 25 44 25 33 8 57-30 24-41C81-84 22-81 20-136c-2-80 154-74 161-7" id="ar"/><g id="i"><use transform="matrix(0.05555555555555555,0,0,0.05555555555555555,0,0)" xlink:href="#ap"/><use transform="matrix(0.05555555555555555,0,0,0.05555555555555555,12.222222222222221,0)" xlink:href="#aq"/><use transform="matrix(0.05555555555555555,0,0,0.05555555555555555,23.333333333333332,0)" xlink:href="#ar"/></g><path d="M205 0l-28-72H64L36 0H1l101-248h38L239 0h-34zm-38-99l-47-123c-12 45-31 82-46 123h93" id="as"/><path d="M114-163C36-179 61-72 57 0H25l-1-190h30c1 12-1 29 2 39 6-27 23-49 58-41v29" id="at"/><g id="j"><use transform="matrix(0.06172839506172839,0,0,0.06172839506172839,0,0)" xlink:href="#as"/><use transform="matrix(0.06172839506172839,0,0,0.06172839506172839,14.814814814814813,0)" xlink:href="#at"/><use transform="matrix(0.06172839506172839,0,0,0.06172839506172839,22.160493827160494,0)" xlink:href="#U"/></g><g id="k"><use transform="matrix(0.06172839506172839,0,0,0.06172839506172839,0,0)" xlink:href="#S"/><use transform="matrix(0.06172839506172839,0,0,0.06172839506172839,6.172839506172839,0)" xlink:href="#T"/><use transform="matrix(0.06172839506172839,0,0,0.06172839506172839,18.51851851851852,0)" xlink:href="#U"/><use transform="matrix(0.06172839506172839,0,0,0.06172839506172839,30.864197530864196,0)" xlink:href="#at"/><use transform="matrix(0.06172839506172839,0,0,0.06172839506172839,38.20987654320987,0)" xlink:href="#U"/></g><path d="M115-194c55 1 70 41 70 98S169 2 115 4C84 4 66-9 55-30l1 105H24l-1-265h31l2 30c10-21 28-34 59-34zm-8 174c40 0 45-34 45-75s-6-73-45-74c-42 0-51 32-51 76 0 43 10 73 51 73" id="au"/><path d="M145-31C134-9 116 4 85 4 32 4 16-35 15-94c0-59 17-99 70-100 32-1 48 14 60 33 0-11-1-24 2-32h30l-1 268h-32zM93-21c41 0 51-33 51-76s-8-73-50-73c-40 0-46 35-46 75s5 74 45 74" id="av"/><g id="l"><use transform="matrix(0.06172839506172839,0,0,0.06172839506172839,0,0)" xlink:href="#au"/><use transform="matrix(0.06172839506172839,0,0,0.06172839506172839,12.345679012345679,0)" xlink:href="#at"/><use transform="matrix(0.06172839506172839,0,0,0.06172839506172839,19.691358024691358,0)" xlink:href="#U"/><use transform="matrix(0.06172839506172839,0,0,0.06172839506172839,32.03703703703704,0)" xlink:href="#at"/><use transform="matrix(0.06172839506172839,0,0,0.06172839506172839,39.382716049382715,0)" xlink:href="#U"/><use transform="matrix(0.06172839506172839,0,0,0.06172839506172839,51.72839506172839,0)" xlink:href="#av"/><use transform="matrix(0.06172839506172839,0,0,0.06172839506172839,64.07407407407408,0)" xlink:href="#aa"/><use transform="matrix(0.06172839506172839,0,0,0.06172839506172839,76.41975308641976,0)" xlink:href="#X"/><use transform="matrix(0.06172839506172839,0,0,0.06172839506172839,81.2962962962963,0)" xlink:href="#R"/><use transform="matrix(0.06172839506172839,0,0,0.06172839506172839,92.40740740740742,0)" xlink:href="#X"/><use transform="matrix(0.06172839506172839,0,0,0.06172839506172839,97.28395061728396,0)" xlink:href="#S"/><use transform="matrix(0.06172839506172839,0,0,0.06172839506172839,103.4567901234568,0)" xlink:href="#U"/><use transform="matrix(0.06172839506172839,0,0,0.06172839506172839,115.80246913580248,0)" xlink:href="#R"/><use transform="matrix(0.06172839506172839,0,0,0.06172839506172839,126.9135802469136,0)" xlink:href="#af"/></g><path d="M197 0v-115H63V0H30v-248h33v105h134v-105h34V0h-34" id="aw"/><path d="M141-36C126-15 110 5 73 4 37 3 15-17 15-53c-1-64 63-63 125-63 3-35-9-54-41-54-24 1-41 7-42 31l-33-3c5-37 33-52 76-52 45 0 72 20 72 64v82c-1 20 7 32 28 27v20c-31 9-61-2-59-35zM48-53c0 20 12 33 32 33 41-3 63-29 60-74-43 2-92-5-92 41" id="ax"/><path d="M108 0H70L1-190h34L89-25l56-165h34" id="ay"/><g id="m"><use transform="matrix(0.06172839506172839,0,0,0.06172839506172839,0,0)" xlink:href="#aw"/><use transform="matrix(0.06172839506172839,0,0,0.06172839506172839,15.987654320987653,0)" xlink:href="#ax"/><use transform="matrix(0.06172839506172839,0,0,0.06172839506172839,28.333333333333332,0)" xlink:href="#ay"/><use transform="matrix(0.06172839506172839,0,0,0.06172839506172839,39.44444444444444,0)" xlink:href="#U"/></g><g id="n"><use transform="matrix(0.06172839506172839,0,0,0.06172839506172839,0,0)" xlink:href="#au"/><use transform="matrix(0.06172839506172839,0,0,0.06172839506172839,12.345679012345679,0)" xlink:href="#at"/><use transform="matrix(0.06172839506172839,0,0,0.06172839506172839,19.691358024691358,0)" xlink:href="#U"/><use transform="matrix(0.06172839506172839,0,0,0.06172839506172839,32.03703703703704,0)" xlink:href="#at"/><use transform="matrix(0.06172839506172839,0,0,0.06172839506172839,39.382716049382715,0)" xlink:href="#U"/><use transform="matrix(0.06172839506172839,0,0,0.06172839506172839,51.72839506172839,0)" xlink:href="#av"/><use transform="matrix(0.06172839506172839,0,0,0.06172839506172839,64.07407407407408,0)" xlink:href="#aa"/><use transform="matrix(0.06172839506172839,0,0,0.06172839506172839,76.41975308641976,0)" xlink:href="#X"/><use transform="matrix(0.06172839506172839,0,0,0.06172839506172839,81.2962962962963,0)" xlink:href="#R"/><use transform="matrix(0.06172839506172839,0,0,0.06172839506172839,92.40740740740742,0)" xlink:href="#X"/><use transform="matrix(0.06172839506172839,0,0,0.06172839506172839,97.28395061728396,0)" xlink:href="#S"/><use transform="matrix(0.06172839506172839,0,0,0.06172839506172839,103.4567901234568,0)" xlink:href="#U"/><use transform="matrix(0.06172839506172839,0,0,0.06172839506172839,115.80246913580248,0)" xlink:href="#R"/></g><path d="M115-194c53 0 69 39 70 98 0 66-23 100-70 100C84 3 66-7 56-30L54 0H23l1-261h32v101c10-23 28-34 59-34zm-8 174c40 0 45-34 45-75 0-40-5-75-45-74-42 0-51 32-51 76 0 43 10 73 51 73" id="az"/><g id="o"><use transform="matrix(0.06172839506172839,0,0,0.06172839506172839,0,0)" xlink:href="#az"/><use transform="matrix(0.06172839506172839,0,0,0.06172839506172839,12.345679012345679,0)" xlink:href="#U"/><use transform="matrix(0.06172839506172839,0,0,0.06172839506172839,24.691358024691358,0)" xlink:href="#U"/><use transform="matrix(0.06172839506172839,0,0,0.06172839506172839,37.03703703703704,0)" xlink:href="#ac"/></g><path d="M101-234c-31-9-42 10-38 44h38v23H63V0H32v-167H5v-23h27c-7-52 17-82 69-68v24" id="aA"/><path d="M85-194c31 0 48 13 60 33l-1-100h32l1 261h-30c-2-10 0-23-3-31C134-8 116 4 85 4 32 4 16-35 15-94c0-66 23-100 70-100zm9 24c-40 0-46 34-46 75 0 40 6 74 45 74 42 0 51-32 51-76 0-42-9-74-50-73" id="aB"/><g id="p"><use transform="matrix(0.06172839506172839,0,0,0.06172839506172839,0,0)" xlink:href="#R"/><use transform="matrix(0.06172839506172839,0,0,0.06172839506172839,11.11111111111111,0)" xlink:href="#ax"/><use transform="matrix(0.06172839506172839,0,0,0.06172839506172839,23.45679012345679,0)" xlink:href="#S"/><use transform="matrix(0.06172839506172839,0,0,0.06172839506172839,29.62962962962963,0)" xlink:href="#X"/><use transform="matrix(0.06172839506172839,0,0,0.06172839506172839,34.50617283950617,0)" xlink:href="#R"/><use transform="matrix(0.06172839506172839,0,0,0.06172839506172839,45.61728395061728,0)" xlink:href="#aA"/><use transform="matrix(0.06172839506172839,0,0,0.06172839506172839,51.79012345679012,0)" xlink:href="#X"/><use transform="matrix(0.06172839506172839,0,0,0.06172839506172839,56.666666666666664,0)" xlink:href="#U"/><use transform="matrix(0.06172839506172839,0,0,0.06172839506172839,69.01234567901234,0)" xlink:href="#aB"/><use transform="matrix(0.06172839506172839,0,0,0.06172839506172839,81.35802469135803,0)" xlink:href="#af"/></g><g id="q"><use transform="matrix(0.061728395061728385,0,0,0.061728395061728385,0,0)" xlink:href="#ag"/><use transform="matrix(0.061728395061728385,0,0,0.061728395061728385,17.28395061728395,0)" xlink:href="#ah"/><use transform="matrix(0.061728395061728385,0,0,0.061728395061728385,30.802469135802465,0)" xlink:href="#ah"/></g><g id="r"><use transform="matrix(0.061728395061728385,0,0,0.061728395061728385,0,0)" xlink:href="#ai"/><use transform="matrix(0.061728395061728385,0,0,0.061728395061728385,11.111111111111109,0)" xlink:href="#aj"/><use transform="matrix(0.061728395061728385,0,0,0.061728395061728385,23.456790123456784,0)" xlink:href="#ak"/><use transform="matrix(0.061728395061728385,0,0,0.061728395061728385,30.80246913580246,0)" xlink:href="#al"/><use transform="matrix(0.061728395061728385,0,0,0.061728395061728385,35.679012345679006,0)" xlink:href="#aj"/><use transform="matrix(0.061728395061728385,0,0,0.061728395061728385,48.02469135802468,0)" xlink:href="#am"/><use transform="matrix(0.061728395061728385,0,0,0.061728395061728385,54.19753086419752,0)" xlink:href="#al"/><use transform="matrix(0.061728395061728385,0,0,0.061728395061728385,59.07407407407406,0)" xlink:href="#an"/><use transform="matrix(0.061728395061728385,0,0,0.061728395061728385,71.41975308641975,0)" xlink:href="#ao"/></g><path fill="#333" d="M175 0L67-191c6 58 2 128 3 191H24v-248h59L193-55c-6-58-2-129-3-193h46V0h-61" id="aC"/><path fill="#333" d="M110-194c64 0 96 36 96 99 0 64-35 99-97 99-61 0-95-36-95-99 0-62 34-99 96-99zm-1 164c35 0 45-28 45-65 0-40-10-65-43-65-34 0-45 26-45 65 0 36 10 65 43 65" id="aD"/><g id="s"><use transform="matrix(0.05555555555555555,0,0,0.05555555555555555,0,0)" xlink:href="#aC"/><use transform="matrix(0.05555555555555555,0,0,0.05555555555555555,14.388888888888888,0)" xlink:href="#aD"/></g><g id="t"><use transform="matrix(0.06172839506172839,0,0,0.06172839506172839,0,0)" xlink:href="#as"/><use transform="matrix(0.06172839506172839,0,0,0.06172839506172839,14.814814814814813,0)" xlink:href="#at"/><use transform="matrix(0.06172839506172839,0,0,0.06172839506172839,22.160493827160494,0)" xlink:href="#U"/></g><g id="u"><use transform="matrix(0.06172839506172839,0,0,0.06172839506172839,0,0)" xlink:href="#S"/><use transform="matrix(0.06172839506172839,0,0,0.06172839506172839,6.172839506172839,0)" xlink:href="#T"/><use transform="matrix(0.06172839506172839,0,0,0.06172839506172839,18.51851851851852,0)" xlink:href="#U"/><use transform="matrix(0.06172839506172839,0,0,0.06172839506172839,30.864197530864196,0)" xlink:href="#at"/><use transform="matrix(0.06172839506172839,0,0,0.06172839506172839,38.20987654320987,0)" xlink:href="#U"/></g><path d="M177-190C167-65 218 103 67 71c-23-6-38-20-44-43l32-5c15 47 100 32 89-28v-30C133-14 115 1 83 1 29 1 15-40 15-95c0-56 16-97 71-98 29-1 48 16 59 35 1-10 0-23 2-32h30zM94-22c36 0 50-32 50-73 0-42-14-75-50-75-39 0-46 34-46 75s6 73 46 73" id="aE"/><g id="v"><use transform="matrix(0.06172839506172839,0,0,0.06172839506172839,0,0)" xlink:href="#S"/><use transform="matrix(0.06172839506172839,0,0,0.06172839506172839,6.172839506172839,0)" xlink:href="#ax"/><use transform="matrix(0.06172839506172839,0,0,0.06172839506172839,18.51851851851852,0)" xlink:href="#at"/><use transform="matrix(0.06172839506172839,0,0,0.06172839506172839,25.864197530864196,0)" xlink:href="#aE"/><use transform="matrix(0.06172839506172839,0,0,0.06172839506172839,38.20987654320987,0)" xlink:href="#U"/><use transform="matrix(0.06172839506172839,0,0,0.06172839506172839,50.55555555555555,0)" xlink:href="#S"/><use transform="matrix(0.06172839506172839,0,0,0.06172839506172839,56.72839506172839,0)" xlink:href="#X"/><use transform="matrix(0.06172839506172839,0,0,0.06172839506172839,61.60493827160494,0)" xlink:href="#ac"/><use transform="matrix(0.06172839506172839,0,0,0.06172839506172839,73.95061728395062,0)" xlink:href="#aE"/></g><path d="M24 0v-261h32V0H24" id="aF"/><g id="w"><use transform="matrix(0.06172839506172839,0,0,0.06172839506172839,0,0)" xlink:href="#at"/><use transform="matrix(0.06172839506172839,0,0,0.06172839506172839,7.345679012345679,0)" xlink:href="#aa"/><use transform="matrix(0.06172839506172839,0,0,0.06172839506172839,19.691358024691358,0)" xlink:href="#aF"/><use transform="matrix(0.06172839506172839,0,0,0.06172839506172839,24.5679012345679,0)" xlink:href="#U"/><use transform="matrix(0.06172839506172839,0,0,0.06172839506172839,36.913580246913575,0)" xlink:href="#R"/><use transform="matrix(0.06172839506172839,0,0,0.06172839506172839,48.02469135802468,0)" xlink:href="#af"/></g><g id="x"><use transform="matrix(0.06172839506172839,0,0,0.06172839506172839,0,0)" xlink:href="#at"/><use transform="matrix(0.06172839506172839,0,0,0.06172839506172839,7.345679012345679,0)" xlink:href="#ab"/><use transform="matrix(0.06172839506172839,0,0,0.06172839506172839,19.691358024691358,0)" xlink:href="#aF"/><use transform="matrix(0.06172839506172839,0,0,0.06172839506172839,24.5679012345679,0)" xlink:href="#aF"/><use transform="matrix(0.06172839506172839,0,0,0.06172839506172839,29.444444444444443,0)" xlink:href="#ab"/><use transform="matrix(0.06172839506172839,0,0,0.06172839506172839,41.79012345679012,0)" xlink:href="#aa"/><use transform="matrix(0.06172839506172839,0,0,0.06172839506172839,54.1358024691358,0)" xlink:href="#S"/></g><g id="y"><use transform="matrix(0.06172839506172839,0,0,0.06172839506172839,0,0)" xlink:href="#au"/><use transform="matrix(0.06172839506172839,0,0,0.06172839506172839,12.345679012345679,0)" xlink:href="#U"/><use transform="matrix(0.06172839506172839,0,0,0.06172839506172839,24.691358024691358,0)" xlink:href="#at"/><use transform="matrix(0.06172839506172839,0,0,0.06172839506172839,32.03703703703704,0)" xlink:href="#Y"/><use transform="matrix(0.06172839506172839,0,0,0.06172839506172839,43.14814814814815,0)" xlink:href="#U"/><use transform="matrix(0.06172839506172839,0,0,0.06172839506172839,55.49382716049383,0)" xlink:href="#ac"/><use transform="matrix(0.06172839506172839,0,0,0.06172839506172839,67.8395061728395,0)" xlink:href="#S"/><use transform="matrix(0.06172839506172839,0,0,0.06172839506172839,74.01234567901234,0)" xlink:href="#ax"/><use transform="matrix(0.06172839506172839,0,0,0.06172839506172839,86.35802469135803,0)" xlink:href="#aE"/><use transform="matrix(0.06172839506172839,0,0,0.06172839506172839,98.70370370370371,0)" xlink:href="#U"/></g><path d="M179-190L93 31C79 59 56 82 12 73V49c39 6 53-20 64-50L1-190h34L92-34l54-156h33" id="aG"/><g id="z"><use transform="matrix(0.06172839506172839,0,0,0.06172839506172839,0,0)" xlink:href="#ax"/><use transform="matrix(0.06172839506172839,0,0,0.06172839506172839,12.345679012345679,0)" xlink:href="#ac"/><use transform="matrix(0.06172839506172839,0,0,0.06172839506172839,24.691358024691358,0)" xlink:href="#aG"/></g><g id="A"><use transform="matrix(0.06172839506172839,0,0,0.06172839506172839,0,0)" xlink:href="#ab"/><use transform="matrix(0.06172839506172839,0,0,0.06172839506172839,12.345679012345679,0)" xlink:href="#aA"/></g><g id="B"><use transform="matrix(0.06172839506172839,0,0,0.06172839506172839,0,0)" xlink:href="#S"/><use transform="matrix(0.06172839506172839,0,0,0.06172839506172839,6.172839506172839,0)" xlink:href="#T"/><use transform="matrix(0.06172839506172839,0,0,0.06172839506172839,18.51851851851852,0)" xlink:href="#U"/></g><g id="C"><use transform="matrix(0.06172839506172839,0,0,0.06172839506172839,0,0)" xlink:href="#S"/><use transform="matrix(0.06172839506172839,0,0,0.06172839506172839,6.172839506172839,0)" xlink:href="#ax"/><use transform="matrix(0.06172839506172839,0,0,0.06172839506172839,18.51851851851852,0)" xlink:href="#at"/><use transform="matrix(0.06172839506172839,0,0,0.06172839506172839,25.864197530864196,0)" xlink:href="#aE"/><use transform="matrix(0.06172839506172839,0,0,0.06172839506172839,38.20987654320987,0)" xlink:href="#U"/><use transform="matrix(0.06172839506172839,0,0,0.06172839506172839,50.55555555555555,0)" xlink:href="#S"/><use transform="matrix(0.06172839506172839,0,0,0.06172839506172839,56.72839506172839,0)" xlink:href="#X"/><use transform="matrix(0.06172839506172839,0,0,0.06172839506172839,61.60493827160494,0)" xlink:href="#ac"/><use transform="matrix(0.06172839506172839,0,0,0.06172839506172839,73.95061728395062,0)" xlink:href="#aE"/></g><g id="D"><use transform="matrix(0.06172839506172839,0,0,0.06172839506172839,0,0)" xlink:href="#at"/><use transform="matrix(0.06172839506172839,0,0,0.06172839506172839,7.345679012345679,0)" xlink:href="#aa"/><use transform="matrix(0.06172839506172839,0,0,0.06172839506172839,19.691358024691358,0)" xlink:href="#aF"/><use transform="matrix(0.06172839506172839,0,0,0.06172839506172839,24.5679012345679,0)" xlink:href="#U"/><use transform="matrix(0.06172839506172839,0,0,0.06172839506172839,36.913580246913575,0)" xlink:href="#R"/></g><path fill="#fff" d="M233-177c-1 41-23 64-60 70L243 0h-38l-65-103H63V0H30v-248c88 3 205-21 203 71zM63-129c60-2 137 13 137-47 0-61-80-42-137-45v92" id="aH"/><path fill="#fff" d="M100-194c63 0 86 42 84 106H49c0 40 14 67 53 68 26 1 43-12 49-29l28 8c-11 28-37 45-77 45C44 4 14-33 15-96c1-61 26-98 85-98zm52 81c6-60-76-77-97-28-3 7-6 17-6 28h103" id="aI"/><path fill="#fff" d="M84 4C-5 8 30-112 23-190h32v120c0 31 7 50 39 49 72-2 45-101 50-169h31l1 190h-30c-1-10 1-25-2-33-11 22-28 36-60 37" id="aJ"/><g id="E"><use transform="matrix(0.061728395061728385,0,0,0.061728395061728385,0,0)" xlink:href="#aH"/><use transform="matrix(0.061728395061728385,0,0,0.061728395061728385,15.987654320987652,0)" xlink:href="#aI"/><use transform="matrix(0.061728395061728385,0,0,0.061728395061728385,28.33333333333333,0)" xlink:href="#am"/><use transform="matrix(0.061728395061728385,0,0,0.061728395061728385,34.50617283950616,0)" xlink:href="#aJ"/><use transform="matrix(0.061728395061728385,0,0,0.061728395061728385,46.85185185185184,0)" xlink:href="#ak"/><use transform="matrix(0.061728395061728385,0,0,0.061728395061728385,54.19753086419752,0)" xlink:href="#ao"/></g><path fill="#fff" d="M106-169C34-169 62-67 57 0H25v-261h32l-1 103c12-21 28-36 61-36 89 0 53 116 60 194h-32v-121c2-32-8-49-39-48" id="aK"/><g id="F"><use transform="matrix(0.061728395061728385,0,0,0.061728395061728385,0,0)" xlink:href="#am"/><use transform="matrix(0.061728395061728385,0,0,0.061728395061728385,6.1728395061728385,0)" xlink:href="#aK"/><use transform="matrix(0.061728395061728385,0,0,0.061728395061728385,18.518518518518515,0)" xlink:href="#aI"/></g><path fill="#fff" d="M96-169c-40 0-48 33-48 73s9 75 48 75c24 0 41-14 43-38l32 2c-6 37-31 61-74 61-59 0-76-41-82-99-10-93 101-131 147-64 4 7 5 14 7 22l-32 3c-4-21-16-35-41-35" id="aL"/><path fill="#fff" d="M135-143c-3-34-86-38-87 0 15 53 115 12 119 90S17 21 10-45l28-5c4 36 97 45 98 0-10-56-113-15-118-90-4-57 82-63 122-42 12 7 21 19 24 35" id="aM"/><path fill="#fff" d="M115-194c55 1 70 41 70 98S169 2 115 4C84 4 66-9 55-30l1 105H24l-1-265h31l2 30c10-21 28-34 59-34zm-8 174c40 0 45-34 45-75s-6-73-45-74c-42 0-51 32-51 76 0 43 10 73 51 73" id="aN"/><path fill="#fff" d="M85-194c31 0 48 13 60 33l-1-100h32l1 261h-30c-2-10 0-23-3-31C134-8 116 4 85 4 32 4 16-35 15-94c0-66 23-100 70-100zm9 24c-40 0-46 34-46 75 0 40 6 74 45 74 42 0 51-32 51-76 0-42-9-74-50-73" id="aO"/><path fill="#fff" d="M177-190C167-65 218 103 67 71c-23-6-38-20-44-43l32-5c15 47 100 32 89-28v-30C133-14 115 1 83 1 29 1 15-40 15-95c0-56 16-97 71-98 29-1 48 16 59 35 1-10 0-23 2-32h30zM94-22c36 0 50-32 50-73 0-42-14-75-50-75-39 0-46 34-46 75s6 73 46 73" id="aP"/><g id="G"><use transform="matrix(0.061728395061728385,0,0,0.061728395061728385,0,0)" xlink:href="#aL"/><use transform="matrix(0.061728395061728385,0,0,0.061728395061728385,11.111111111111109,0)" xlink:href="#an"/><use transform="matrix(0.061728395061728385,0,0,0.061728395061728385,23.456790123456784,0)" xlink:href="#ak"/><use transform="matrix(0.061728395061728385,0,0,0.061728395061728385,30.80246913580246,0)" xlink:href="#ak"/><use transform="matrix(0.061728395061728385,0,0,0.061728395061728385,38.14814814814814,0)" xlink:href="#aI"/><use transform="matrix(0.061728395061728385,0,0,0.061728395061728385,50.493827160493815,0)" xlink:href="#aM"/><use transform="matrix(0.061728395061728385,0,0,0.061728395061728385,61.60493827160492,0)" xlink:href="#aN"/><use transform="matrix(0.061728395061728385,0,0,0.061728395061728385,73.9506172839506,0)" xlink:href="#an"/><use transform="matrix(0.061728395061728385,0,0,0.061728395061728385,86.29629629629628,0)" xlink:href="#ao"/><use transform="matrix(0.061728395061728385,0,0,0.061728395061728385,98.64197530864195,0)" xlink:href="#aO"/><use transform="matrix(0.061728395061728385,0,0,0.061728395061728385,110.98765432098762,0)" xlink:href="#al"/><use transform="matrix(0.061728395061728385,0,0,0.061728395061728385,115.86419753086416,0)" xlink:href="#ao"/><use transform="matrix(0.061728395061728385,0,0,0.061728395061728385,128.20987654320984,0)" xlink:href="#aP"/></g><g id="H"><use transform="matrix(0.06172839506172839,0,0,0.06172839506172839,0,0)" xlink:href="#ax"/><use transform="matrix(0.06172839506172839,0,0,0.06172839506172839,12.345679012345679,0)" xlink:href="#ac"/><use transform="matrix(0.06172839506172839,0,0,0.06172839506172839,24.691358024691358,0)" xlink:href="#aG"/></g><g id="I"><use transform="matrix(0.06172839506172839,0,0,0.06172839506172839,0,0)" xlink:href="#ab"/><use transform="matrix(0.06172839506172839,0,0,0.06172839506172839,12.345679012345679,0)" xlink:href="#aA"/></g><g id="J"><use transform="matrix(0.06172839506172839,0,0,0.06172839506172839,0,0)" xlink:href="#au"/><use transform="matrix(0.06172839506172839,0,0,0.06172839506172839,12.345679012345679,0)" xlink:href="#U"/><use transform="matrix(0.06172839506172839,0,0,0.06172839506172839,24.691358024691358,0)" xlink:href="#at"/><use transform="matrix(0.06172839506172839,0,0,0.06172839506172839,32.03703703703704,0)" xlink:href="#Y"/><use transform="matrix(0.06172839506172839,0,0,0.06172839506172839,43.14814814814815,0)" xlink:href="#U"/><use transform="matrix(0.06172839506172839,0,0,0.06172839506172839,55.49382716049383,0)" xlink:href="#ac"/><use transform="matrix(0.06172839506172839,0,0,0.06172839506172839,67.8395061728395,0)" xlink:href="#S"/><use transform="matrix(0.06172839506172839,0,0,0.06172839506172839,74.01234567901234,0)" xlink:href="#ax"/><use transform="matrix(0.06172839506172839,0,0,0.06172839506172839,86.35802469135803,0)" xlink:href="#aE"/><use transform="matrix(0.06172839506172839,0,0,0.06172839506172839,98.70370370370371,0)" xlink:href="#U"/></g><path fill="#fff" d="M30-248c118-7 216 8 213 122C240-48 200 0 122 0H30v-248zM63-27c89 8 146-16 146-99s-60-101-146-95v194" id="aQ"/><path fill="#fff" d="M101-234c-31-9-42 10-38 44h38v23H63V0H32v-167H5v-23h27c-7-52 17-82 69-68v24" id="aR"/><path fill="#fff" d="M24 0v-261h32V0H24" id="aS"/><g id="K"><use transform="matrix(0.061728395061728385,0,0,0.061728395061728385,0,0)" xlink:href="#aQ"/><use transform="matrix(0.061728395061728385,0,0,0.061728395061728385,15.987654320987652,0)" xlink:href="#aI"/><use transform="matrix(0.061728395061728385,0,0,0.061728395061728385,28.33333333333333,0)" xlink:href="#aR"/><use transform="matrix(0.061728395061728385,0,0,0.061728395061728385,34.50617283950616,0)" xlink:href="#aj"/><use transform="matrix(0.061728395061728385,0,0,0.061728395061728385,46.85185185185184,0)" xlink:href="#aJ"/><use transform="matrix(0.061728395061728385,0,0,0.061728395061728385,59.19753086419752,0)" xlink:href="#aS"/><use transform="matrix(0.061728395061728385,0,0,0.061728395061728385,64.07407407407406,0)" xlink:href="#am"/></g><path fill="#fff" d="M179-190L93 31C79 59 56 82 12 73V49c39 6 53-20 64-50L1-190h34L92-34l54-156h33" id="aT"/><g id="L"><use transform="matrix(0.061728395061728385,0,0,0.061728395061728385,0,0)" xlink:href="#aM"/><use transform="matrix(0.061728395061728385,0,0,0.061728395061728385,11.111111111111109,0)" xlink:href="#am"/><use transform="matrix(0.061728395061728385,0,0,0.061728395061728385,17.28395061728395,0)" xlink:href="#ak"/><use transform="matrix(0.061728395061728385,0,0,0.061728395061728385,24.629629629629626,0)" xlink:href="#aj"/><use transform="matrix(0.061728395061728385,0,0,0.061728395061728385,36.9753086419753,0)" xlink:href="#am"/><use transform="matrix(0.061728395061728385,0,0,0.061728395061728385,43.14814814814814,0)" xlink:href="#aI"/><use transform="matrix(0.061728395061728385,0,0,0.061728395061728385,55.493827160493815,0)" xlink:href="#aP"/><use transform="matrix(0.061728395061728385,0,0,0.061728395061728385,67.83950617283949,0)" xlink:href="#aT"/></g></defs></g></svg>